<svg xmlns="http://www.w3.org/2000/svg" viewBox="0 0 1024 1024" width="1024" height="1024">
  <defs>
    <linearGradient id="bg" x1="0" y1="0" x2="1" y2="1">
      <stop offset="0" stop-color="#1b212d"/>
      <stop offset="1" stop-color="#0d1015"/>
    </linearGradient>
    <radialGradient id="coin" cx="0.38" cy="0.34" r="0.85">
      <stop offset="0" stop-color="#1fd196"/>
      <stop offset="1" stop-color="#12a374"/>
    </radialGradient>
    <clipPath id="sq">
      <rect x="0" y="0" width="1024" height="1024" rx="232" ry="232"/>
    </clipPath>
  </defs>

  <g clip-path="url(#sq)">
    <!-- fondo -->
    <rect x="0" y="0" width="1024" height="1024" fill="url(#bg)"/>
    <!-- rejilla blueprint -->
    <g stroke="#1fd196" stroke-width="2" opacity="0.07">
      <line x1="64" y1="0" x2="64" y2="1024"/>
      <line x1="0" y1="64" x2="1024" y2="64"/>
      <line x1="128" y1="0" x2="128" y2="1024"/>
      <line x1="0" y1="128" x2="1024" y2="128"/>
      <line x1="192" y1="0" x2="192" y2="1024"/>
      <line x1="0" y1="192" x2="1024" y2="192"/>
      <line x1="256" y1="0" x2="256" y2="1024"/>
      <line x1="0" y1="256" x2="1024" y2="256"/>
      <line x1="320" y1="0" x2="320" y2="1024"/>
      <line x1="0" y1="320" x2="1024" y2="320"/>
      <line x1="384" y1="0" x2="384" y2="1024"/>
      <line x1="0" y1="384" x2="1024" y2="384"/>
      <line x1="448" y1="0" x2="448" y2="1024"/>
      <line x1="0" y1="448" x2="1024" y2="448"/>
      <line x1="512" y1="0" x2="512" y2="1024"/>
      <line x1="0" y1="512" x2="1024" y2="512"/>
      <line x1="576" y1="0" x2="576" y2="1024"/>
      <line x1="0" y1="576" x2="1024" y2="576"/>
      <line x1="640" y1="0" x2="640" y2="1024"/>
      <line x1="0" y1="640" x2="1024" y2="640"/>
      <line x1="704" y1="0" x2="704" y2="1024"/>
      <line x1="0" y1="704" x2="1024" y2="704"/>
      <line x1="768" y1="0" x2="768" y2="1024"/>
      <line x1="0" y1="768" x2="1024" y2="768"/>
      <line x1="832" y1="0" x2="832" y2="1024"/>
      <line x1="0" y1="832" x2="1024" y2="832"/>
      <line x1="896" y1="0" x2="896" y2="1024"/>
      <line x1="0" y1="896" x2="1024" y2="896"/>
      <line x1="960" y1="0" x2="960" y2="1024"/>
      <line x1="0" y1="960" x2="1024" y2="960"/>
    </g>
    <!-- viñeta sutil -->
    <rect x="0" y="0" width="1024" height="1024" fill="url(#bg)" opacity="0.25"/>

    <!-- ── Moneda (glifo de dominio) ── -->
    <g transform="translate(512.0,512.0)">
      <circle r="300" fill="url(#coin)"/>
      <!-- reeding grabado en el canto -->
      <g fill="#0e1218" opacity="0.9">
        <rect x="-5" y="-294" width="10" height="30" rx="5" transform="rotate(0.000)"/>
        <rect x="-5" y="-294" width="10" height="30" rx="5" transform="rotate(10.000)"/>
        <rect x="-5" y="-294" width="10" height="30" rx="5" transform="rotate(20.000)"/>
        <rect x="-5" y="-294" width="10" height="30" rx="5" transform="rotate(30.000)"/>
        <rect x="-5" y="-294" width="10" height="30" rx="5" transform="rotate(40.000)"/>
        <rect x="-5" y="-294" width="10" height="30" rx="5" transform="rotate(50.000)"/>
        <rect x="-5" y="-294" width="10" height="30" rx="5" transform="rotate(60.000)"/>
        <rect x="-5" y="-294" width="10" height="30" rx="5" transform="rotate(70.000)"/>
        <rect x="-5" y="-294" width="10" height="30" rx="5" transform="rotate(80.000)"/>
        <rect x="-5" y="-294" width="10" height="30" rx="5" transform="rotate(90.000)"/>
        <rect x="-5" y="-294" width="10" height="30" rx="5" transform="rotate(100.000)"/>
        <rect x="-5" y="-294" width="10" height="30" rx="5" transform="rotate(110.000)"/>
        <rect x="-5" y="-294" width="10" height="30" rx="5" transform="rotate(120.000)"/>
        <rect x="-5" y="-294" width="10" height="30" rx="5" transform="rotate(130.000)"/>
        <rect x="-5" y="-294" width="10" height="30" rx="5" transform="rotate(140.000)"/>
        <rect x="-5" y="-294" width="10" height="30" rx="5" transform="rotate(150.000)"/>
        <rect x="-5" y="-294" width="10" height="30" rx="5" transform="rotate(160.000)"/>
        <rect x="-5" y="-294" width="10" height="30" rx="5" transform="rotate(170.000)"/>
        <rect x="-5" y="-294" width="10" height="30" rx="5" transform="rotate(180.000)"/>
        <rect x="-5" y="-294" width="10" height="30" rx="5" transform="rotate(190.000)"/>
        <rect x="-5" y="-294" width="10" height="30" rx="5" transform="rotate(200.000)"/>
        <rect x="-5" y="-294" width="10" height="30" rx="5" transform="rotate(210.000)"/>
        <rect x="-5" y="-294" width="10" height="30" rx="5" transform="rotate(220.000)"/>
        <rect x="-5" y="-294" width="10" height="30" rx="5" transform="rotate(230.000)"/>
        <rect x="-5" y="-294" width="10" height="30" rx="5" transform="rotate(240.000)"/>
        <rect x="-5" y="-294" width="10" height="30" rx="5" transform="rotate(250.000)"/>
        <rect x="-5" y="-294" width="10" height="30" rx="5" transform="rotate(260.000)"/>
        <rect x="-5" y="-294" width="10" height="30" rx="5" transform="rotate(270.000)"/>
        <rect x="-5" y="-294" width="10" height="30" rx="5" transform="rotate(280.000)"/>
        <rect x="-5" y="-294" width="10" height="30" rx="5" transform="rotate(290.000)"/>
        <rect x="-5" y="-294" width="10" height="30" rx="5" transform="rotate(300.000)"/>
        <rect x="-5" y="-294" width="10" height="30" rx="5" transform="rotate(310.000)"/>
        <rect x="-5" y="-294" width="10" height="30" rx="5" transform="rotate(320.000)"/>
        <rect x="-5" y="-294" width="10" height="30" rx="5" transform="rotate(330.000)"/>
        <rect x="-5" y="-294" width="10" height="30" rx="5" transform="rotate(340.000)"/>
        <rect x="-5" y="-294" width="10" height="30" rx="5" transform="rotate(350.000)"/>
      </g>
    </g>

    <!-- anillo interior grabado -->
    <circle cx="512.0" cy="512.0" r="252" fill="none" stroke="#0e1218" stroke-width="14"/>

    <!-- símbolo $ grabado -->
    <g fill="none" stroke="#0e1218" stroke-width="50" stroke-linecap="round" stroke-linejoin="round">
      <path d="M 590.0 429.0 C 590.0 374.0 434.0 374.0 434.0 467.0 C 434.0 527.0 590.0 497.0 590.0 557.0 C 590.0 650.0 434.0 650.0 434.0 595.0"/>
    </g>
    <rect x="496.0" y="334.0" width="32" height="356" rx="16" fill="#0e1218"/>

    <!-- brillo superior del squircle -->
    <rect x="0" y="0" width="1024" height="1024" rx="232" ry="232"
          fill="none" stroke="#ffffff" stroke-opacity="0.06" stroke-width="2"/>
  </g>
</svg>